<svg version="1.1" id="Layer_1" xmlns="http://www.w3.org/2000/svg" xmlns:xlink="http://www.w3.org/1999/xlink" x="0px" y="0px"
	 width="100%" viewBox="0 0 336 496" enable-background="new 0 0 336 496" xml:space="preserve">
<path fill="#000000" opacity="1.000000" stroke="none" 
	d="
M57.468658,497.000000 
	C51.804955,492.357971 51.896271,486.427826 53.291420,480.409058 
	C55.596134,470.466309 61.932850,463.265259 70.037010,457.575287 
	C72.599548,455.776093 74.056648,453.628967 74.433090,450.731567 
	C76.056892,438.233673 77.583199,425.723145 79.194054,412.824341 
	C70.882889,409.583679 62.150887,408.569824 53.489437,407.438324 
	C47.729549,406.685852 41.924053,406.202148 36.068886,406.287720 
	C30.803923,406.364624 27.809858,403.241058 27.701586,397.840820 
	C27.551285,390.344269 27.633699,382.842773 27.644192,375.343445 
	C27.647369,373.073547 27.418358,371.162659 24.804653,370.156860 
	C14.610301,366.234131 10.049552,357.908722 7.412463,347.926697 
	C4.855336,338.247375 5.369222,328.811676 8.861244,319.535431 
	C11.470003,312.605499 15.898633,307.030548 22.551277,303.588135 
	C25.615562,302.002502 26.840797,299.956726 26.722914,296.482880 
	C26.491322,289.658203 26.610785,282.819061 26.690035,275.987122 
	C26.771046,269.003387 30.203033,265.467651 37.271851,265.762390 
	C44.062092,266.045532 50.852684,266.819061 57.491421,268.399902 
	C60.884235,269.207825 63.145512,268.700653 65.435585,265.506104 
	C73.832451,253.793030 84.010971,243.733170 95.519325,235.034088 
	C97.099815,233.839386 98.598770,232.536819 99.978951,231.411789 
	C100.332664,229.125748 98.682785,228.189514 97.721954,226.920151 
	C87.460159,213.362854 80.472992,198.489456 79.708733,181.230194 
	C79.564026,177.962219 77.767944,177.035950 75.213120,176.239273 
	C67.256065,173.758026 59.421978,171.026794 52.523258,166.104996 
	C38.091599,155.808914 36.799160,142.007904 49.099247,129.344650 
	C55.650848,122.599625 63.069069,116.863869 71.070473,112.120773 
	C77.592545,108.254631 81.122597,102.934677 83.314125,95.985451 
	C88.424660,79.780205 96.089111,64.871147 107.255432,51.952389 
	C124.785553,31.671103 145.717575,16.034559 171.172989,7.202297 
	C184.894302,2.441418 198.953003,3.265301 212.020218,9.595768 
	C228.374908,17.518850 244.123154,26.613010 257.410492,39.316078 
	C279.107056,60.058567 293.303467,84.963593 295.767181,115.080521 
	C296.524017,124.332611 301.399506,129.433243 306.445740,135.339310 
	C313.938324,144.108627 321.188965,152.998245 324.911224,164.171707 
	C328.998871,176.442108 326.196747,184.606720 315.158630,191.496521 
	C306.076141,197.165695 296.039429,200.096909 285.361176,200.257278 
	C281.155182,200.320450 278.676788,201.329315 277.207489,205.641296 
	C274.409729,213.852066 269.516174,221.061203 264.671814,228.398849 
	C269.656219,232.037262 274.504028,235.241013 278.980011,238.899673 
	C301.462860,257.277130 314.039246,281.041870 317.454987,309.836151 
	C320.476654,335.308258 313.756500,356.923523 293.072693,373.200287 
	C291.020844,374.814941 290.498505,376.433105 290.895508,379.182983 
	C294.214661,402.172180 297.271057,425.199371 300.400818,448.215881 
	C301.943756,459.562714 303.449860,470.914612 305.020142,482.257660 
	C305.910736,488.690857 303.725250,492.957489 297.267761,496.794373 
	C268.645782,497.000000 240.291550,497.000000 211.292542,496.713562 
	C205.433075,493.114410 204.359497,487.826416 203.695831,482.236908 
	C201.350006,462.480286 198.870728,442.739502 196.535324,422.981689 
	C195.988159,418.352631 194.062912,416.133484 189.066086,417.090271 
	C186.484802,417.584503 183.751984,417.388275 181.090836,417.336975 
	C178.181046,417.280884 176.603989,418.088287 176.216629,421.452301 
	C174.055405,440.222321 171.830994,458.989502 169.227142,477.701843 
	C168.248657,484.733612 169.954727,493.238861 161.000000,497.000000 
	C126.645775,497.000000 92.291542,497.000000 57.468658,497.000000 
M137.601151,140.367432 
	C125.294205,140.747040 113.077461,142.220901 100.829826,143.335312 
	C98.276581,143.567642 97.547005,145.080399 96.945801,147.126633 
	C93.036674,160.431473 92.298492,173.880707 94.848106,187.526459 
	C98.824974,208.810974 111.516899,224.253342 129.300156,235.002060 
	C158.521301,252.664185 189.788971,252.926666 220.972473,241.020035 
	C254.415222,228.250732 273.206085,195.272736 269.031708,160.193665 
	C268.407288,154.946716 265.597229,154.242966 261.725403,153.302094 
	C221.251541,143.466583 180.086655,140.295410 137.601151,140.367432 
M195.548904,262.365753 
	C192.073486,262.684387 188.604080,263.169861 185.121704,263.294861 
	C160.262817,264.187103 137.378845,257.717468 116.420219,244.446075 
	C113.762062,242.762863 111.730553,242.770020 109.165665,244.406357 
	C99.257576,250.727402 90.314018,258.122498 83.026054,267.392670 
	C81.942772,268.770599 80.383232,270.010223 80.507729,272.118591 
	C81.766380,273.960663 83.877983,274.123016 85.711983,274.770111 
	C99.125473,279.502777 112.143341,285.108368 123.226082,294.197266 
	C126.596313,296.961182 128.793793,296.801697 132.264130,294.671844 
	C161.015350,277.026337 192.766144,272.461060 225.775146,273.806030 
	C230.087921,273.981750 233.626297,275.936127 234.223083,280.756805 
	C235.365265,289.983368 236.562836,299.215851 237.252457,308.481995 
	C237.942368,317.752167 237.682602,317.771484 246.937408,317.898560 
	C248.042969,315.680908 248.848541,313.312347 248.617325,310.782532 
	C248.182434,306.024292 250.535690,303.526276 254.970734,302.882141 
	C258.914642,302.309265 263.527954,305.686462 264.116211,309.789459 
	C264.782104,314.433563 265.483368,319.920746 261.870605,323.139862 
	C254.477249,329.727692 254.569946,337.456085 256.242950,345.950806 
	C256.559296,347.556915 256.233246,349.279175 256.334015,350.939911 
	C256.807404,358.741150 254.904373,366.320862 253.659653,374.103119 
	C285.416718,369.230743 307.483032,347.447968 303.405396,312.461517 
	C299.754761,281.138519 282.278900,258.533844 256.177551,241.953766 
	C253.814972,240.453003 251.932266,240.147217 249.444153,242.007645 
	C233.716431,253.767563 215.717178,259.738678 195.548904,262.365753 
M207.406708,401.699463 
	C211.548035,402.010712 215.686661,402.368622 219.832031,402.610504 
	C221.517303,402.708862 223.056702,402.610718 223.609482,400.343231 
	C225.216888,393.749908 223.409012,390.294067 216.972839,388.189270 
	C193.953171,380.661255 184.273697,352.071533 197.851288,331.819855 
	C202.900970,324.287994 210.306168,320.555725 218.819626,318.601837 
	C222.025909,317.865967 224.234055,316.882202 223.789291,312.740692 
	C223.098175,306.304932 222.716125,299.801819 222.773148,293.332275 
	C222.809311,289.231079 221.247620,288.309174 217.477127,288.273376 
	C207.472534,288.178375 197.523849,288.724243 187.679199,290.398346 
	C170.361588,293.343262 153.720016,298.282684 138.513245,307.453979 
	C135.058273,309.537720 133.896667,312.050476 133.913422,315.980133 
	C134.042633,346.278412 133.974472,376.577484 134.021713,406.876221 
	C134.024643,408.753540 133.365311,410.933655 135.710327,412.548004 
	C158.382324,403.857422 182.100525,400.732117 207.406708,401.699463 
M66.759285,394.521423 
	C84.917236,397.909882 102.144905,404.153595 119.158867,412.500610 
	C119.379227,410.270050 119.618362,408.972595 119.619347,407.674957 
	C119.642845,376.689240 119.612862,345.703461 119.688507,314.717926 
	C119.695724,311.761353 118.526283,309.706421 116.476395,307.773071 
	C108.566528,300.312927 99.045547,295.632477 89.101326,291.651337 
	C75.904419,286.368042 62.126873,283.386383 48.105698,281.433014 
	C42.814632,280.695892 42.070717,281.466095 41.933994,286.920868 
	C41.854717,290.083923 41.879044,293.252502 41.695030,296.409149 
	C41.521297,299.389496 42.476906,301.411774 45.349174,302.752075 
	C52.811905,306.234467 56.847084,312.556030 59.217442,320.176422 
	C62.304222,330.100067 61.771996,340.309998 61.016590,350.386261 
	C60.375210,358.941620 57.274094,367.245209 48.876709,370.888519 
	C42.777489,373.534698 41.757092,377.337097 42.325195,382.862579 
	C42.494728,384.511475 42.441566,386.196533 42.344704,387.856537 
	C42.180836,390.664856 43.485630,391.711121 46.218136,391.688629 
	C52.902416,391.633575 59.401627,393.121002 66.759285,394.521423 
M288.380646,481.193604 
	C291.400940,476.721954 288.773407,472.055725 288.286102,467.728149 
	C285.762939,445.321106 282.689789,422.972137 279.507812,400.645752 
	C278.677582,394.820435 278.528656,388.775360 275.949402,382.750214 
	C264.715820,386.948517 253.417496,390.118103 241.567535,390.860199 
	C239.143463,391.011963 238.324829,392.679108 238.375366,395.054260 
	C238.467407,399.380249 238.565414,403.723572 238.292160,408.036285 
	C237.697800,417.417023 233.770172,420.269653 224.596786,418.857941 
	C220.076920,418.162354 215.444916,418.195282 210.458847,417.872314 
	C211.481171,425.722961 212.435257,432.922302 213.353119,440.126251 
	C214.923706,452.453278 216.526001,464.776764 217.992569,477.116272 
	C218.381058,480.385101 219.876556,481.696655 223.182785,481.677582 
	C244.657776,481.553680 266.133423,481.542450 288.380646,481.193604 
M176.079803,89.448235 
	C212.143250,90.789803 246.759872,98.575363 280.187042,113.326149 
	C279.160767,100.989830 275.776184,89.998512 269.944672,79.755638 
	C255.850418,54.999477 235.258636,37.321548 209.628738,25.533535 
	C193.356750,18.049526 196.381241,16.995014 185.419769,32.472923 
	C175.386353,46.640369 171.247406,63.080246 168.831528,80.068398 
	C167.709686,87.957039 167.657196,88.301201 176.079803,89.448235 
M75.718765,126.265320 
	C72.613205,128.726517 69.507645,131.187714 65.651314,134.243912 
	C144.809174,118.870628 221.715836,124.994072 298.186676,147.816498 
	C292.225220,139.667252 286.443695,131.706909 277.035217,127.304565 
	C244.627686,112.140701 210.298782,105.044876 174.769928,103.474831 
	C157.291840,102.702446 139.815491,103.895836 122.655396,107.455482 
	C106.187431,110.871567 89.758469,114.708000 75.718765,126.265320 
M69.442421,478.570068 
	C68.355011,482.603485 71.536537,481.566193 73.314537,481.571625 
	C98.800629,481.649597 124.287140,481.593719 149.773224,481.672241 
	C153.035172,481.682312 154.371399,480.733765 154.765564,477.204712 
	C156.496094,461.711151 158.753784,446.275970 160.436829,430.777954 
	C160.776764,427.647858 162.470337,424.403656 160.813156,420.755707 
	C150.928253,422.355011 141.729950,425.688385 133.202744,430.561371 
	C128.230225,433.402954 124.377968,433.288208 119.543129,430.057343 
	C111.726044,424.833618 103.080528,421.044098 93.753349,417.843658 
	C91.573944,432.414459 89.380989,446.317535 87.494301,460.262054 
	C87.062302,463.454956 85.785843,465.378448 83.002876,466.815002 
	C77.767097,469.517700 73.182365,473.079071 69.442421,478.570068 
M152.733566,86.232086 
	C152.997650,84.930130 153.386627,83.639610 153.507095,82.324493 
	C155.376450,61.915607 162.358017,43.261463 172.773132,25.761663 
	C173.464783,24.599529 174.923828,23.512115 173.952057,21.796663 
	C147.822006,25.410332 102.029526,72.094513 99.159195,98.348083 
	C115.919357,93.809441 132.744568,90.332039 150.017502,89.553658 
	C151.564240,89.483955 152.423706,88.579201 152.733566,86.232086 
M240.888107,360.640717 
	C242.195145,356.227814 241.659424,351.696503 241.615158,347.222656 
	C241.461975,331.745758 239.057617,329.169189 222.482788,332.806519 
	C222.160034,332.877380 221.857773,333.036865 221.539932,333.135590 
	C213.734573,335.559723 208.349274,340.310364 207.421188,348.786804 
	C206.088898,360.954865 209.329346,367.760406 218.178391,372.380096 
	C221.319794,374.020111 224.740814,374.868378 228.152954,375.479858 
	C236.837357,377.036224 237.949219,376.179565 239.820770,367.410309 
	C240.234970,365.469543 240.458893,363.488190 240.888107,360.640717 
M45.608292,350.904022 
	C47.465115,341.634064 47.401154,332.423218 44.407715,323.390961 
	C42.935101,318.947540 40.459812,314.882965 35.314030,314.588593 
	C30.460115,314.310913 26.937908,317.334503 24.379446,321.318298 
	C23.577700,322.566681 22.903650,323.924133 22.357805,325.305420 
	C18.423317,335.261810 20.530567,344.565399 25.838142,353.314178 
	C28.225159,357.248871 31.745941,360.580597 36.654572,360.216309 
	C41.494736,359.857117 43.872871,355.943146 45.608292,350.904022 
M284.404266,185.389969 
	C292.116638,186.253387 299.292816,184.356567 305.852112,180.524139 
	C311.016602,177.506683 311.164825,173.557526 306.506561,169.730850 
	C301.008942,165.214661 294.296509,163.086044 287.695038,160.806915 
	C285.650116,160.100891 284.435455,160.752411 284.376343,163.022385 
	C284.186890,170.295471 284.016571,177.569061 284.404266,185.389969 
M77.594124,146.841034 
	C70.625504,148.287048 63.406460,148.627960 55.613468,151.316772 
	C62.488033,156.606827 69.470711,159.028137 76.714142,160.446655 
	C81.016693,161.289246 80.336418,156.629791 80.237503,154.845474 
	C80.089424,152.174271 83.977592,148.033508 77.594124,146.841034 
z"/>
<path fill="#000000" opacity="1.000000" stroke="none" 
	d="
M145.339859,216.961884 
	C141.826080,215.644394 138.861038,214.144592 136.528015,211.658600 
	C133.121414,208.028656 132.879486,203.822983 135.899048,200.444092 
	C139.034592,196.935394 142.509125,197.777054 145.699585,200.169022 
	C151.437057,204.470551 157.666473,207.254501 164.905792,207.667755 
	C171.521957,208.045456 177.269058,205.773941 182.770996,202.374680 
	C185.434296,200.729202 188.266754,198.976196 191.624619,200.712036 
	C196.859863,203.418350 197.252655,210.003265 192.084061,213.702408 
	C183.302597,219.987259 173.176697,221.707947 162.662628,220.965103 
	C156.875977,220.556274 151.176102,219.186111 145.339859,216.961884 
z"/>
<path fill="#000000" opacity="1.000000" stroke="none" 
	d="
M194.546326,156.797699 
	C199.902374,156.193375 204.471527,156.988571 207.039291,161.721741 
	C209.771240,166.757553 209.266205,172.021454 206.550888,176.949463 
	C204.335663,180.969833 200.680344,182.495514 196.117554,182.376297 
	C191.532181,182.256485 188.734970,179.765259 186.837708,175.963058 
	C183.968582,170.213211 186.126038,158.918045 194.546326,156.797699 
z"/>
<path fill="#000000" opacity="1.000000" stroke="none" 
	d="
M135.791412,155.676453 
	C143.331848,157.246033 146.851898,162.360092 145.712097,169.479492 
	C144.412796,177.595352 139.807190,181.888748 133.037399,181.294983 
	C126.799629,180.747894 122.444290,175.182495 122.762512,168.165405 
	C123.112373,160.450546 127.655876,155.943146 135.791412,155.676453 
z"/>
</svg>